<?xml version="1.0" encoding="UTF-8"?>
<!DOCTYPE svg PUBLIC "-//W3C//DTD SVG 1.1//EN" "http://www.w3.org/Graphics/SVG/1.1/DTD/svg11.dtd">
<!-- Creator: CorelDRAW X6 -->
<svg xmlns="http://www.w3.org/2000/svg" xml:space="preserve" width="6.01389in" height="8.5in" version="1.1" style="shape-rendering:geometricPrecision; text-rendering:geometricPrecision; image-rendering:optimizeQuality; fill-rule:evenodd; clip-rule:evenodd"
viewBox="0 0 6014 8500"
 xmlns:xlink="http://www.w3.org/1999/xlink">
 <defs>
  <style type="text/css">
   <![CDATA[
    .fil3 {fill:#282828;fill-rule:nonzero}
    .fil0 {fill:#E55638;fill-rule:nonzero}
    .fil2 {fill:#EAEAEA;fill-rule:nonzero}
    .fil1 {fill:#F26B3A;fill-rule:nonzero}
    .fil4 {fill:#FEFEFE;fill-rule:nonzero}
   ]]>
  </style>
 </defs>
 <g id="Layer_x0020_1">
  <metadata id="CorelCorpID_0Corel-Layer"/>
  <polygon class="fil0" points="548,7817 0,1670 6022,1670 5473,7816 3007,8500 "/>
  <polygon class="fil1" points="3011,7977 5004,7425 5472,2173 3011,2173 "/>
  <polygon class="fil2" points="3011,4453 2013,4453 1944,3681 3011,3681 3011,2927 1121,2927 1139,3129 1324,5207 3011,5207 "/>
  <polygon class="fil2" points="3011,6411 3008,6412 2168,6185 2114,5584 1358,5584 1463,6767 3008,7196 3011,7195 "/>
  <polygon class="fil3" points="560,0 943,0 943,379 1294,379 1294,0 1677,0 1677,1146 1294,1146 1294,762 943,762 943,1146 560,1146 560,0 "/>
  <polygon class="fil3" points="2181,380 1844,380 1844,0 2901,0 2901,380 2564,380 2564,1146 2181,1146 2181,380 "/>
  <polygon class="fil3" points="3069,0 3469,0 3714,403 3960,0 4360,0 4360,1146 3978,1146 3978,578 3714,986 3708,986 3444,578 3444,1146 3069,1146 "/>
  <polygon class="fil3" points="4550,0 4934,0 4934,767 5472,767 5472,1146 4550,1146 "/>
  <polygon class="fil4" points="3008,4453 3008,5207 3937,5207 3849,6184 3008,6411 3008,7196 4554,6767 4565,6640 4742,4655 4761,4453 "/>
  <polygon class="fil4" points="3008,2927 3008,3681 4827,3681 4829,3681 4844,3511 4879,3129 4897,2927 "/>
 </g>
</svg>
